<svg viewBox="0 0 24 24" xmlns="http://www.w3.org/2000/svg">
	<path d="M12 2C12.5523 2 13 2.44772 13 3V18.5858L18.2929 13.2929C18.6834 12.9024 19.3166 12.9024 19.7071 13.2929C20.0976 13.6834 20.0976 14.3166 19.7071 14.7071L12.7071 21.7071C12.6114 21.8028 12.5011 21.8751 12.3834 21.9239C12.2654 21.9729 12.1358 22 12 22C11.8644 22 11.7351 21.973 11.6172 21.9241C11.502 21.8764 11.3938 21.8063 11.2995 21.7136C11.2975 21.7116 11.2949 21.7091 11.2929 21.7071L4.29289 14.7071C3.90237 14.3166 3.90237 13.6834 4.29289 13.2929C4.68342 12.9024 5.31658 12.9024 5.70711 13.2929L11 18.5858V3C11 2.44772 11.4477 2 12 2Z" />
</svg>
