<svg viewBox="0 0 24 24" xmlns="http://www.w3.org/2000/svg">
	<path d="M12 22C11.4477 22 11 21.5523 11 21L11 5.41421L5.70711 10.7071C5.31658 11.0976 4.68342 11.0976 4.29289 10.7071C3.90237 10.3166 3.90237 9.68342 4.29289 9.29289L11.2929 2.29289C11.3886 2.19719 11.4989 2.12494 11.6166 2.07615C11.7347 2.02708 11.8642 2 12 2C12.1356 2 12.2649 2.02698 12.3828 2.07588C12.4981 2.12357 12.6062 2.19374 12.7006 2.2864C12.7025 2.28835 12.7051 2.29091 12.7071 2.29289L19.7071 9.29289C20.0976 9.68342 20.0976 10.3166 19.7071 10.7071C19.3166 11.0976 18.6834 11.0976 18.2929 10.7071L13 5.41421L13 21C13 21.5523 12.5523 22 12 22Z" />
</svg>
