<svg viewBox="0 0 24 24" xmlns="http://www.w3.org/2000/svg">
	<path d="M22 12C22 12.5523 21.5523 13 21 13L5.41421 13L10.7071 18.2929C11.0976 18.6834 11.0976 19.3166 10.7071 19.7071C10.3166 20.0976 9.68342 20.0976 9.29289 19.7071L2.29289 12.7071C2.19719 12.6114 2.12494 12.5011 2.07615 12.3834C2.02708 12.2653 2 12.1358 2 12C2 11.8644 2.02698 11.7351 2.07588 11.6172C2.12357 11.502 2.19374 11.3938 2.2864 11.2994C2.28835 11.2975 2.29091 11.2949 2.29289 11.2929L9.29289 4.29289C9.68342 3.90237 10.3166 3.90237 10.7071 4.29289C11.0976 4.68342 11.0976 5.31658 10.7071 5.70711L5.41421 11L21 11C21.5523 11 22 11.4477 22 12Z" />
</svg>
