<svg viewBox="0 0 24 24" xmlns="http://www.w3.org/2000/svg">
	<path d="M2 12C2 11.4477 2.44771 11 3 11L18.5858 11L13.2929 5.70711C12.9024 5.31658 12.9024 4.68342 13.2929 4.29289C13.6834 3.90237 14.3166 3.90237 14.7071 4.29289L21.7071 11.2929C21.8028 11.3886 21.8751 11.4989 21.9239 11.6166C21.9729 11.7346 22 11.8642 22 12C22 12.1356 21.973 12.2649 21.9241 12.3828C21.8764 12.498 21.8063 12.6062 21.7136 12.7005C21.7116 12.7025 21.7091 12.7051 21.7071 12.7071L14.7071 19.7071C14.3166 20.0976 13.6834 20.0976 13.2929 19.7071C12.9024 19.3166 12.9024 18.6834 13.2929 18.2929L18.5858 13L3 13C2.44771 13 2 12.5523 2 12Z" />
</svg>
