<svg viewBox="0 0 24 24" xmlns="http://www.w3.org/2000/svg">
	<path fill-rule="evenodd" clip-rule="evenodd" d="M22 12C22 17.5228 17.5229 22 12 22C6.47718 22 2.00003 17.5228 2.00003 12C2.00003 6.47715 6.47718 2 12 2C17.5229 2 22 6.47715 22 12ZM17.2427 10.1716C17.5962 9.81802 17.5962 9.11091 17.2427 8.75736C16.8891 8.40381 16.182 8.40381 15.8285 8.75736L10.5 14.0858L8.70714 12.2929C8.31661 11.9024 7.68345 11.9024 7.29292 12.2929C6.9024 12.6834 6.9024 13.3166 7.29292 13.7071L9.79292 16.2071C10.1465 16.5607 10.8536 16.5607 11.2071 16.2071L17.2427 10.1716Z" />
</svg>
