<svg viewBox="0 0 24 24" xmlns="http://www.w3.org/2000/svg">
	<path d="M17.2426 8.75736C17.5962 9.11091 17.5962 9.81802 17.2426 10.1716L11.2071 16.2071C10.8536 16.5607 10.1465 16.5607 9.7929 16.2071L7.2929 13.7071C6.90238 13.3166 6.90238 12.6834 7.2929 12.2929C7.68342 11.9024 8.31659 11.9024 8.70711 12.2929L10.5 14.0858L15.8284 8.75736C16.182 8.40381 16.8891 8.40381 17.2426 8.75736Z" />
	<path fill-rule="evenodd" clip-rule="evenodd" d="M4.00001 2C2.89545 2 2.00001 2.89543 2.00001 4V20C2.00001 21.1046 2.89545 22 4.00001 22H20C21.1046 22 22 21.1046 22 20V4C22 2.89543 21.1046 2 20 2H4.00001ZM20 4H4.00001V20H20V4Z" />
</svg>
