<svg viewBox="0 0 24 24" xmlns="http://www.w3.org/2000/svg">
	<path d="M17.2427 8.75736C17.5962 9.11091 17.5962 9.81802 17.2427 10.1716L11.2071 16.2071C10.8536 16.5607 10.1465 16.5607 9.79292 16.2071L7.29292 13.7071C6.9024 13.3166 6.9024 12.6834 7.29292 12.2929C7.68345 11.9024 8.31661 11.9024 8.70714 12.2929L10.5 14.0858L15.8285 8.75736C16.182 8.40381 16.8891 8.40381 17.2427 8.75736Z" />
	<path fill-rule="evenodd" clip-rule="evenodd" d="M12 22C17.5229 22 22 17.5228 22 12C22 6.47715 17.5229 2 12 2C6.47718 2 2.00003 6.47715 2.00003 12C2.00003 17.5228 6.47718 22 12 22ZM12 20C16.4183 20 20 16.4183 20 12C20 7.58172 16.4183 4 12 4C7.58175 4 4.00003 7.58172 4.00003 12C4.00003 16.4183 7.58175 20 12 20Z" />
</svg>
