<svg viewBox="0 0 24 24" xmlns="http://www.w3.org/2000/svg">
	<path fill-rule="evenodd" clip-rule="evenodd" d="M2 4C2 2.89543 2.89545 2 4 2H20C21.1046 2 22 2.89543 22 4V20C22 21.1046 21.1046 22 20 22H4C2.89545 22 2 21.1046 2 20V4ZM17.2426 10.1716C17.5962 9.81802 17.5962 9.11091 17.2426 8.75736C16.8891 8.40381 16.182 8.40381 15.8284 8.75736L10.5 14.0858L8.70711 12.2929C8.31658 11.9024 7.68342 11.9024 7.29289 12.2929C6.90237 12.6834 6.90237 13.3166 7.29289 13.7071L9.79289 16.2071C10.1464 16.5607 10.8536 16.5607 11.2071 16.2071L17.2426 10.1716Z" />
</svg>
