<svg viewBox="0 0 24 24" xmlns="http://www.w3.org/2000/svg">
	<path fill-rule="evenodd" clip-rule="evenodd" d="M7.75737 14.8285C7.36685 15.219 7.36685 15.8521 7.75737 16.2427C8.1479 16.6332 8.78106 16.6332 9.17159 16.2427L12 13.4142L14.8284 16.2427C15.219 16.6332 15.8521 16.6332 16.2427 16.2427C16.6332 15.8521 16.6332 15.219 16.2427 14.8284L13.4142 12L16.2427 9.17158C16.6332 8.78106 16.6332 8.14789 16.2427 7.75737C15.8521 7.36684 15.219 7.36684 14.8285 7.75737L12 10.5858L9.17159 7.75738C8.78107 7.36685 8.1479 7.36685 7.75738 7.75738C7.36685 8.1479 7.36685 8.78107 7.75738 9.17159L10.5858 12L7.75737 14.8285Z" />
</svg>
