<svg viewBox="0 0 24 24" xmlns="http://www.w3.org/2000/svg">
	<path d="M3 2C2.44772 2 2 2.44772 2 3V21C2 21.5523 2.44772 22 3 22C3.55228 22 4 21.5523 4 21V3C4 2.44772 3.55228 2 3 2Z" />
	<path d="M12.7071 7.70711C13.0976 7.31658 13.0976 6.68342 12.7071 6.29289C12.3166 5.90237 11.6834 5.90237 11.2929 6.29289L6.29289 11.2929C6.19719 11.3886 6.12494 11.4989 6.07615 11.6166C6.02708 11.7346 6 11.8642 6 12C6 12.1356 6.02699 12.2649 6.07588 12.3828C6.12357 12.498 6.19374 12.6062 6.2864 12.7005L6.29289 12.7071L11.2929 17.7071C11.6834 18.0976 12.3166 18.0976 12.7071 17.7071C13.0976 17.3166 13.0976 16.6834 12.7071 16.2929L9.41421 13H21C21.5523 13 22 12.5523 22 12C22 11.4477 21.5523 11 21 11H9.41421L12.7071 7.70711Z" />
</svg>
