<svg viewBox="0 0 24 24" xmlns="http://www.w3.org/2000/svg">
	<path d="M4 12L2 12L2 20C2 21.1046 2.89543 22 4 22L20 22C21.1046 22 22 21.1046 22 20L22 12L20 12L20 20L4 20L4 12Z" />
	<path d="M16.2929 11.2929C16.6834 10.9024 17.3166 10.9024 17.7071 11.2929C18.0976 11.6834 18.0976 12.3166 17.7071 12.7071L12.7071 17.7071C12.6114 17.8028 12.5011 17.8751 12.3834 17.9239C12.2653 17.9729 12.1358 18 12 18C11.8644 18 11.7351 17.973 11.6172 17.9241C11.502 17.8764 11.3938 17.8063 11.2995 17.7136L11.2929 17.7071L6.29289 12.7071C5.90237 12.3166 5.90237 11.6834 6.29289 11.2929C6.68342 10.9024 7.31658 10.9024 7.70711 11.2929L11 14.5858L11 3C11 2.44772 11.4477 2 12 2C12.5523 2 13 2.44772 13 3L13 14.5858L16.2929 11.2929Z" />
</svg>
