<svg viewBox="0 0 24 24" xmlns="http://www.w3.org/2000/svg">
	<path d="M21 2C20.4477 2 20 2.44772 20 3V21C20 21.5523 20.4477 22 21 22C21.5523 22 22 21.5523 22 21V3C22 2.44772 21.5523 2 21 2Z" />
	<path d="M8.70711 7.70711C9.09763 7.31658 9.09763 6.68342 8.70711 6.29289C8.31658 5.90237 7.68342 5.90237 7.29289 6.29289L2.29289 11.2929C2.19719 11.3886 2.12494 11.4989 2.07615 11.6166C2.02708 11.7346 2 11.8642 2 12C2 12.1356 2.02699 12.2649 2.07588 12.3828C2.12357 12.498 2.19374 12.6062 2.2864 12.7005L2.29289 12.7071L7.29289 17.7071C7.68342 18.0976 8.31658 18.0976 8.70711 17.7071C9.09763 17.3166 9.09763 16.6834 8.70711 16.2929L5.41421 13H17C17.5523 13 18 12.5523 18 12C18 11.4477 17.5523 11 17 11H5.41421L8.70711 7.70711Z" />
</svg>
