<svg viewBox="0 0 24 24" xmlns="http://www.w3.org/2000/svg">
	<path d="M3 2C3.55228 2 4 2.44772 4 3V21C4 21.5523 3.55228 22 3 22C2.44772 22 2 21.5523 2 21V3C2 2.44772 2.44772 2 3 2Z" />
	<path d="M15.2929 7.70711C14.9024 7.31658 14.9024 6.68342 15.2929 6.29289C15.6834 5.90237 16.3166 5.90237 16.7071 6.29289L21.7071 11.2929C21.8028 11.3886 21.8751 11.4989 21.9239 11.6166C21.9729 11.7346 22 11.8642 22 12C22 12.1356 21.973 12.2649 21.9241 12.3828C21.8764 12.498 21.8063 12.6062 21.7136 12.7005L21.7071 12.7071L16.7071 17.7071C16.3166 18.0976 15.6834 18.0976 15.2929 17.7071C14.9024 17.3166 14.9024 16.6834 15.2929 16.2929L18.5858 13H7C6.44772 13 6 12.5523 6 12C6 11.4477 6.44772 11 7 11H18.5858L15.2929 7.70711Z" />
</svg>
