<svg viewBox="0 0 24 24" xmlns="http://www.w3.org/2000/svg">
	<path d="M4.00003 17C4.00003 16.4477 4.50003 16 5.00003 16H19C19.5 16 20 16.4477 20 17C20 17.5523 19.5 18 19 18H5.00003C4.50003 18 4.00003 17.5523 4.00003 17Z" />
	<path d="M4.00003 7C4.00003 6.44772 4.50003 6 5.00003 6H19C19.5 6 20 6.44772 20 7C20 7.55228 19.5 8 19 8H5.00003C4.50003 8 4.00003 7.55228 4.00003 7Z" />
	<path d="M4.00003 12C4.00003 11.4477 4.50003 11 5.00003 11H19C19.5 11 20 11.4477 20 12C20 12.5523 19.5 13 19 13H5.00003C4.50003 13 4.00003 12.5523 4.00003 12Z" />
</svg>
