<svg viewBox="0 0 24 24" xmlns="http://www.w3.org/2000/svg">
	<path d="M12 20V22H20C21.1046 22 22 21.1046 22 20V4C22 2.89543 21.1046 2 20 2H12V4H20V20H12Z" />
	<path d="M11.2929 7.70711C10.9024 7.31658 10.9024 6.68342 11.2929 6.29289C11.6834 5.90237 12.3166 5.90237 12.7071 6.29289L17.7071 11.2929C17.8028 11.3886 17.8751 11.4989 17.9239 11.6166C17.9729 11.7346 18 11.8642 18 12C18 12.1356 17.973 12.2649 17.9241 12.3828C17.8764 12.498 17.8063 12.6062 17.7136 12.7005L17.7071 12.7071L12.7071 17.7071C12.3166 18.0976 11.6834 18.0976 11.2929 17.7071C10.9024 17.3166 10.9024 16.6834 11.2929 16.2929L14.5858 13H3C2.44772 13 2 12.5523 2 12C2 11.4477 2.44772 11 3 11H14.5858L11.2929 7.70711Z" />
</svg>
