<svg viewBox="0 0 24 24" xmlns="http://www.w3.org/2000/svg">
	<path d="M22 12L22 20C22 21.1046 21.1046 22 20 22L4 22C2.89543 22 2 21.1046 2 20L2 12L4 12L4 20L20 20L20 12L22 12Z" />
	<path d="M7.70711 8.70711C7.31658 9.09763 6.68342 9.09763 6.29289 8.70711C5.90237 8.31658 5.90237 7.68342 6.29289 7.29289L11.2929 2.29289C11.3886 2.19719 11.4989 2.12494 11.6166 2.07615C11.7346 2.02708 11.8642 2 12 2C12.1356 2 12.2649 2.02699 12.3828 2.07588C12.498 2.12357 12.6062 2.19374 12.7005 2.2864L12.7071 2.29289L17.7071 7.29289C18.0976 7.68342 18.0976 8.31658 17.7071 8.70711C17.3166 9.09763 16.6834 9.09763 16.2929 8.70711L13 5.41421L13 17C13 17.5523 12.5523 18 12 18C11.4477 18 11 17.5523 11 17L11 5.41421L7.70711 8.70711Z" />
</svg>
